<?xml version="1.0" encoding="UTF-8"?>
<svg version="1.1" xmlns="http://www.w3.org/2000/svg" width="8334" height="8334">
<path d="M0 0 C2750.22 0 5500.44 0 8334 0 C8334 2750.22 8334 5500.44 8334 8334 C5583.78 8334 2833.56 8334 0 8334 C0 5583.78 0 2833.56 0 0 Z " fill="#353535" transform="translate(0,0)"/>
<path d="M0 0 C2.2440667 -0.0044396 4.48812947 -0.01151301 6.7321806 -0.02097899 C12.91648802 -0.03940358 19.10020425 -0.02033473 25.28446766 0.00468981 C31.31235423 0.02315997 37.34015367 0.01326374 43.36804533 0.00418842 C55.8463776 -0.01359418 68.32454138 -0.00298524 80.80285263 0.02305412 C93.44757139 0.04932449 106.09220305 0.06248944 118.73694992 0.05964088 C119.93499914 0.05938265 119.93499914 0.05938265 121.15725138 0.05911921 C125.22983462 0.05818095 129.30241778 0.05702926 133.37500095 0.05580219 C162.85175013 0.0473574 192.32842179 0.06794148 221.80514717 0.10390663 C250.99723634 0.1394394 280.18929232 0.16255676 309.38140297 0.16902351 C310.74121312 0.16933322 310.74121312 0.16933322 312.12849419 0.16964918 C320.40832212 0.17152838 328.68815008 0.17325452 336.96797808 0.17479703 C357.55085083 0.17863345 378.1337228 0.1843894 398.7165947 0.19144821 C400.12255412 0.19192807 400.12255412 0.19192807 401.55691676 0.19241762 C447.15326196 0.20814736 492.74958524 0.24599297 538.34591484 0.28565025 C554.1691772 0.2994002 569.99243964 0.31305237 585.81570244 0.32629967 C586.79706061 0.32712136 587.77841879 0.32794306 588.78951509 0.32878965 C634.40907109 0.36685306 680.02863084 0.38920733 725.64819855 0.40750844 C728.60979884 0.40869682 731.57139913 0.40989198 734.53299942 0.41108851 C754.15965363 0.41900719 773.78630794 0.42665509 793.41296233 0.43412167 C832.46524509 0.44898074 871.51752713 0.46543084 910.56980877 0.48297395 C912.42958679 0.48380939 914.2893648 0.48464372 916.14914282 0.48547693 C999.87376125 0.52299616 1083.59836361 0.57902406 1167.32296562 0.64307213 C1168.1069423 0.64367174 1168.89091897 0.64427135 1169.69865251 0.64488913 C1208.90789712 0.674892 1248.11714084 0.70595106 1287.32638359 0.73828697 C1284.83565525 3.32494521 1282.39155393 5.00140528 1279.25997734 6.78516197 C1278.23066093 7.37490807 1277.20134453 7.96465416 1276.14083672 8.57227135 C1275.02644218 9.2045565 1273.91204765 9.83684166 1272.76388359 10.48828697 C1271.59236898 11.15770044 1270.42114983 11.82763123 1269.25021172 12.4980526 C1266.81694525 13.89068694 1264.38242127 15.28108445 1261.94698906 16.6699276 C1256.39480766 19.83858463 1250.86157697 23.04008138 1245.32638359 26.23828697 C1243.1598065 27.48844222 1240.99313952 28.73844171 1238.82638359 29.98828697 C1237.75388359 30.60703697 1236.68138359 31.22578697 1235.57638359 31.86328697 C1121.82638358 97.48828698 1121.82638358 97.48828698 1118.57589531 99.36353111 C1116.41081288 100.61264215 1114.24577377 101.86182826 1112.08077812 103.11108971 C1106.64022653 106.25031007 1101.19891143 109.3881926 1095.75607109 112.52344322 C1085.3043216 118.54576026 1074.86338811 124.58498034 1064.45138359 130.67578697 C1055.18138582 136.09749875 1045.86806607 141.44033613 1036.53793144 146.75751305 C1027.41355519 151.95873826 1018.32505585 157.21856575 1009.25948906 162.52173424 C998.73553734 168.67595439 988.17258222 174.76198693 977.60861015 180.84717369 C972.17978417 183.97508845 966.75319078 187.10687145 961.32638359 190.23828697 C959.15972776 191.48830576 956.99306109 192.73830576 954.82638359 193.98828697 C953.75388359 194.60703697 952.68138359 195.22578697 951.57638359 195.86328697 C759.82638359 306.48828697 759.82638359 306.48828697 756.57589531 308.36353111 C754.41081288 309.61264215 752.24577377 310.86182826 750.08077812 312.11108971 C744.64022653 315.25031007 739.19891143 318.3881926 733.75607109 321.52344322 C723.3043216 327.54576026 712.86338811 333.58498034 702.45138359 339.67578697 C693.18138582 345.09749875 683.86806607 350.44033613 674.53793144 355.75751305 C665.41355519 360.95873826 656.32505585 366.21856575 647.25948906 371.52173424 C636.73553734 377.67595439 626.17258222 383.76198693 615.60861015 389.84717369 C610.17978417 392.97508845 604.75319078 396.10687145 599.32638359 399.23828697 C597.15972776 400.48830576 594.99306109 401.73830576 592.82638359 402.98828697 C591.75388359 403.60703697 590.68138359 404.22578697 589.57638359 404.86328697 C397.82638362 515.48828696 397.82638362 515.48828696 394.57589531 517.36353111 C392.41081288 518.61264215 390.24577377 519.86182826 388.08077812 521.11108971 C382.64022653 524.25031007 377.19891143 527.3881926 371.75607109 530.52344322 C361.3043216 536.54576026 350.86338811 542.58498034 340.45138359 548.67578697 C331.18138582 554.09749875 321.86806607 559.44033613 312.53793144 564.75751305 C303.41355519 569.95873826 294.32505585 575.21856575 285.25948906 580.52173424 C274.73553734 586.67595439 264.17258222 592.76198693 253.60861015 598.84717369 C248.17978417 601.97508845 242.75319078 605.10687145 237.32638359 608.23828697 C235.15972776 609.48830576 232.99306109 610.73830576 230.82638359 611.98828697 C229.75388359 612.60703697 228.68138359 613.22578697 227.57638359 613.86328697 C35.82638357 724.48828699 35.82638357 724.48828699 32.57589531 726.36353111 C30.41081288 727.61264215 28.24577377 728.86182826 26.08077812 730.11108971 C20.64022653 733.25031007 15.19891143 736.3881926 9.75607109 739.52344322 C-0.6956784 745.54576026 -11.13661189 751.58498034 -21.54861641 757.67578697 C-30.81861418 763.09749875 -40.13193393 768.44033613 -49.46206856 773.75751305 C-58.58644481 778.95873826 -67.67494415 784.21856575 -76.74051094 789.52173424 C-87.26446266 795.67595439 -97.82741778 801.76198693 -108.39138985 807.84717369 C-113.82021583 810.97508845 -119.24680922 814.10687145 -124.67361641 817.23828697 C-126.84027224 818.48830576 -129.00693891 819.73830576 -131.17361641 820.98828697 C-132.24611641 821.60703697 -133.31861641 822.22578697 -134.42361641 822.86328697 C-326.1736164 933.48828696 -326.1736164 933.48828696 -329.42410469 935.36353111 C-331.58918712 936.61264215 -333.75422623 937.86182826 -335.91922188 939.11108971 C-341.35977347 942.25031007 -346.80108857 945.3881926 -352.24392891 948.52344322 C-362.6956784 954.54576026 -373.13661189 960.58498034 -383.54861641 966.67578697 C-392.81861418 972.09749875 -402.13193393 977.44033613 -411.46206856 982.75751305 C-420.58644481 987.95873826 -429.67494415 993.21856575 -438.74051094 998.52173424 C-449.26446266 1004.67595439 -459.82741778 1010.76198693 -470.39138985 1016.84717369 C-475.82021583 1019.97508845 -481.24680922 1023.10687145 -486.67361641 1026.23828697 C-488.84027224 1027.48830576 -491.00693891 1028.73830576 -493.17361641 1029.98828697 C-494.24611641 1030.60703697 -495.31861641 1031.22578697 -496.42361641 1031.86328697 C-688.17361643 1142.48828698 -688.17361643 1142.48828698 -691.42410469 1144.36353111 C-693.58918712 1145.61264215 -695.75422623 1146.86182826 -697.91922188 1148.11108971 C-703.35977347 1151.25031007 -708.80108857 1154.3881926 -714.24392891 1157.52344322 C-724.6956784 1163.54576026 -735.13661189 1169.58498034 -745.54861641 1175.67578697 C-754.81861418 1181.09749875 -764.13193393 1186.44033613 -773.46206856 1191.75751305 C-782.58644481 1196.95873826 -791.67494415 1202.21856575 -800.74051094 1207.52173424 C-811.26446266 1213.67595439 -821.82741778 1219.76198693 -832.39138985 1225.84717369 C-837.82021583 1228.97508845 -843.24680922 1232.10687145 -848.67361641 1235.23828697 C-850.84027224 1236.48830576 -853.00693891 1237.73830576 -855.17361641 1238.98828697 C-856.24611641 1239.60703697 -857.31861641 1240.22578697 -858.42361641 1240.86328697 C-1050.1736164 1351.48828696 -1050.1736164 1351.48828696 -1053.42410469 1353.36353111 C-1055.58918712 1354.61264215 -1057.75422623 1355.86182826 -1059.91922188 1357.11108971 C-1065.35977347 1360.25031007 -1070.80108857 1363.3881926 -1076.24392891 1366.52344322 C-1086.6956784 1372.54576026 -1097.13661189 1378.58498034 -1107.54861641 1384.67578697 C-1116.81861418 1390.09749875 -1126.13193393 1395.44033613 -1135.46206856 1400.75751305 C-1144.58644481 1405.95873826 -1153.67494415 1411.21856575 -1162.74051094 1416.52173424 C-1173.26446266 1422.67595439 -1183.82741778 1428.76198693 -1194.39138985 1434.84717369 C-1199.82021583 1437.97508845 -1205.24680922 1441.10687145 -1210.67361641 1444.23828697 C-1212.84027224 1445.48830576 -1215.00693891 1446.73830576 -1217.17361641 1447.98828697 C-1218.24611641 1448.60703697 -1219.31861641 1449.22578697 -1220.42361641 1449.86328697 C-1386.17361641 1545.48828697 -1386.17361641 1545.48828697 -1389.42483711 1547.36377525 C-1391.58768421 1548.61171544 -1393.75028265 1549.86008668 -1395.91263008 1551.10889244 C-1401.38575988 1554.26901995 -1406.86324032 1557.42113568 -1412.34939766 1560.55859947 C-1439.27700161 1575.97768441 -1465.69550661 1592.28722964 -1490.67361641 1610.73828697 C-1491.30138985 1611.20154381 -1491.92916328 1611.66480064 -1492.57596016 1612.14209557 C-1514.59064678 1628.43317823 -1535.94280357 1645.57223318 -1556.01223946 1664.22046471 C-1557.22594334 1665.32929602 -1558.4533588 1666.42317157 -1559.68850899 1667.50806236 C-1567.3328012 1674.2531202 -1574.51961537 1681.43246701 -1581.71536446 1688.64966393 C-1583.86373507 1690.80341219 -1586.01742335 1692.95173924 -1588.17166328 1695.0996151 C-1589.56195809 1696.49057052 -1590.95194277 1697.881836 -1592.34158516 1699.27344322 C-1592.97404655 1699.90388039 -1593.60650795 1700.53431755 -1594.25813484 1701.18385887 C-1598.04440685 1704.98976528 -1601.64564123 1708.91053125 -1605.15065193 1712.97720909 C-1607.23143832 1715.38332357 -1609.39020407 1717.71432379 -1611.54861641 1720.05078697 C-1616.00050296 1724.93716696 -1620.20664771 1729.9736424 -1624.35428047 1735.11865807 C-1625.82826504 1736.92813505 -1627.32351895 1738.71862302 -1628.82205391 1740.50781822 C-1637.83909874 1751.29811641 -1646.33866821 1762.415082 -1654.67361641 1773.73828697 C-1655.22904121 1774.48691002 -1655.78446602 1775.23553307 -1656.35672188 1776.00684166 C-1665.67036767 1788.56865289 -1674.27682143 1801.54879052 -1682.67361641 1814.73828697 C-1683.52488106 1816.07512535 -1683.52488106 1816.07512535 -1684.39334297 1817.43897057 C-1715.48501416 1866.48640137 -1740.45693577 1918.99023815 -1759.67361641 1973.73828697 C-1760.09739571 1974.9371151 -1760.521175 1976.13594322 -1760.9577961 1977.37109947 C-1768.27880284 1998.21430392 -1774.22550027 2019.33964754 -1779.67361641 2040.73828697 C-1779.84312813 2041.40195274 -1780.01263985 2042.06561852 -1780.18728828 2042.74939537 C-1788.85737363 2076.80150098 -1794.58392866 2111.5093318 -1798.4164753 2146.42047691 C-1798.66054069 2148.62042549 -1798.9159533 2150.81876219 -1799.17410469 2153.01709557 C-1804.70147061 2201.01675806 -1804.558043 2252.58196249 -1798.92685127 2300.5617733 C-1798.65917222 2302.8624325 -1798.40541602 2305.16435596 -1798.15359688 2307.4668026 C-1796.16271754 2325.49625364 -1793.5603548 2343.39480984 -1790.29861641 2361.23828697 C-1790.16966988 2361.94921501 -1790.04072334 2362.66014305 -1789.90786934 2363.39261436 C-1784.93020879 2390.55950736 -1778.11062722 2417.24848239 -1770.83620262 2443.87199974 C-1769.68941752 2448.07567461 -1768.55070054 2452.28153342 -1767.41165352 2456.48731041 C-1766.93734135 2458.2383805 -1766.46302183 2459.9894486 -1765.98869514 2461.74051476 C-1765.63246921 2463.05566252 -1765.63246921 2463.05566252 -1765.26904678 2464.39737892 C-1764.54141788 2467.08246735 -1763.81294138 2469.76732454 -1763.08424568 2472.45212364 C-1758.23477324 2490.32420431 -1753.4502049 2508.21347473 -1748.67346382 2526.10510826 C-1746.25619154 2535.15913617 -1743.83590082 2544.2123575 -1741.41580391 2553.26563072 C-1741.05613942 2554.61121748 -1741.05613942 2554.61121748 -1740.68920898 2555.98398781 C-1735.42548181 2575.67622364 -1730.14513881 2595.36398879 -1724.86111641 2615.05078697 C-1724.40983048 2616.73221339 -1723.95854671 2618.4136404 -1723.50726509 2620.09506798 C-1723.28296916 2620.93076915 -1723.05867323 2621.76647032 -1722.82758045 2622.62749577 C-1721.91240183 2626.03735643 -1720.99722593 2629.44721782 -1720.08206177 2632.85708237 C-1719.61893821 2634.58266071 -1719.15580979 2636.30823774 -1718.69267654 2638.03381348 C-1710.28540834 2669.3587573 -1701.89188016 2700.68738687 -1693.49585152 2732.01534462 C-1689.62393081 2746.46254916 -1685.75113806 2760.90951964 -1681.87761497 2775.35629463 C-1670.9752543 2816.01827468 -1660.08050169 2856.6822585 -1649.2081089 2897.3522625 C-1642.10511668 2923.92184421 -1634.99007121 2950.48815948 -1627.86111641 2977.05078697 C-1627.63810734 2977.88173756 -1627.41509827 2978.71268814 -1627.18533134 2979.56881905 C-1626.05077826 2983.79625603 -1624.91620731 2988.02368822 -1623.78163338 2992.25111961 C-1623.55418875 2993.09858316 -1623.32674412 2993.94604671 -1623.09240723 2994.81919098 C-1622.63013654 2996.54161794 -1622.16786261 2998.26404403 -1621.70558548 2999.98646927 C-1615.71179588 3022.31934493 -1609.72317551 3044.65360613 -1603.73611641 3066.98828697 C-1603.46278858 3068.00791275 -1603.18946075 3069.02753853 -1602.90785027 3070.07806206 C-1595.14108316 3099.05167903 -1587.38427937 3128.02794491 -1579.63713646 3157.00681496 C-1572.48474613 3183.76083487 -1565.32641412 3210.5132424 -1558.15060616 3237.26099205 C-1557.25509836 3240.59899091 -1556.35979675 3243.93704496 -1555.46469307 3247.27515221 C-1550.200444 3266.90662386 -1544.92163725 3286.53409829 -1539.62467003 3306.1567688 C-1537.87173631 3312.65210733 -1536.12071269 3319.14796112 -1534.36968994 3325.64381504 C-1532.6706384 3331.94579415 -1530.96818546 3338.24684192 -1529.26325035 3344.54723167 C-1528.21001356 3348.44237004 -1527.15986771 3352.33833676 -1526.11056709 3356.23453712 C-1525.61974217 3358.05441616 -1525.12759458 3359.87393903 -1524.63406563 3361.69308662 C-1523.95906811 3364.18176665 -1523.28867353 3366.67164193 -1522.61941719 3369.16187096 C-1522.32052684 3370.25718809 -1522.32052684 3370.25718809 -1522.0155983 3371.37463284 C-1521.24514221 3374.2575289 -1520.67361641 3376.73872888 -1520.67361641 3379.73828697 C-1744.41361641 3379.73828697 -1968.15361641 3379.73828697 -2198.67361641 3379.73828697 C-2205.93361641 3352.34828697 -2213.19361641 3324.95828697 -2220.67361641 3296.73828697 C-2224.57154498 3282.18199491 -2228.47125969 3267.62656078 -2232.39605522 3253.0775547 C-2234.4801225 3245.34889812 -2236.55945686 3237.6189652 -2238.63961411 3229.88925552 C-2239.16991456 3227.91874792 -2239.70026754 3225.94825445 -2240.23067474 3223.97777557 C-2245.72431227 3203.56826028 -2251.18829563 3183.15085963 -2256.64480019 3162.73139 C-2258.78685908 3154.71536387 -2260.92935975 3146.69945581 -2263.07205391 3138.68359947 C-2263.30558697 3137.80992981 -2263.53912003 3136.93626015 -2263.77972984 3136.03611565 C-2269.0031231 3116.49610022 -2274.24306932 3096.96053647 -2279.48611641 3077.42578697 C-2279.93676211 3075.74668006 -2280.38740501 3074.06757239 -2280.83804512 3072.38846397 C-2281.06176041 3071.55489089 -2281.28547569 3070.72131781 -2281.51597023 3069.86248493 C-2281.74040558 3069.02622861 -2281.96484093 3068.18997229 -2282.19607735 3067.32837486 C-2282.42153992 3066.48829415 -2282.64700249 3065.64821344 -2282.87929726 3064.78267574 C-2283.33778682 3063.07432904 -2283.79627528 3061.36598203 -2284.25476265 3059.65763474 C-2284.71705899 3057.93510068 -2285.17935962 3056.21256778 -2285.64166451 3054.49003601 C-2291.63544911 3032.15718343 -2297.62406342 3009.82294503 -2303.61111641 2987.48828697 C-2303.88444424 2986.46866119 -2304.15777206 2985.44903542 -2304.43938255 2984.39851189 C-2312.68343185 2953.6444126 -2320.91523705 2922.88705671 -2329.1383152 2892.12734413 C-2336.24158435 2865.5567536 -2343.35679554 2838.98939941 -2350.48611641 2812.42578697 C-2350.70956734 2811.59321625 -2350.93301826 2810.76064552 -2351.16324043 2809.90284538 C-2351.84312562 2807.36963817 -2352.5230181 2804.83643291 -2353.20291328 2802.30322838 C-2354.1215383 2798.88054098 -2355.04015736 2795.45785198 -2355.95877266 2792.03516197 C-2356.18835293 2791.17977711 -2356.4179332 2790.32439224 -2356.65447044 2789.44308662 C-2360.41189561 2775.4431569 -2364.16654993 2761.44248563 -2367.91971016 2747.44141197 C-2368.18486176 2746.45232967 -2368.45001335 2745.46324738 -2368.72319984 2744.44419289 C-2371.439941 2734.31001028 -2374.1561367 2724.17568239 -2376.86987495 2714.04069519 C-2378.23778423 2708.93200898 -2379.60601277 2703.82340831 -2380.97439766 2698.71484947 C-2381.24687576 2697.69757648 -2381.51935387 2696.6803035 -2381.80008888 2695.63220406 C-2385.50281018 2681.8108301 -2389.22036046 2667.993526 -2392.95038033 2654.17949486 C-2394.99626955 2646.60240621 -2397.03788883 2639.0241687 -2399.07864761 2631.44569683 C-2400.45544638 2626.33416491 -2401.83448298 2621.22326354 -2403.21963692 2616.11398888 C-2413.10326449 2579.64898395 -2422.63504263 2543.02441388 -2429.86111641 2505.92578697 C-2430.05951118 2504.92051964 -2430.25790596 2503.9152523 -2430.4623127 2502.87952232 C-2443.65466225 2435.90874997 -2452.39648608 2367.93481806 -2455.67361641 2299.73828697 C-2455.76053177 2298.21696078 -2455.84753338 2296.69563951 -2455.93460274 2295.17432213 C-2456.99526314 2275.20606822 -2456.86094806 2255.2092441 -2456.85891914 2235.219244 C-2456.8588385 2231.01412154 -2456.86569447 2226.80910945 -2456.87942696 2222.60400963 C-2456.9960601 2186.27257414 -2456.01293181 2150.07572002 -2452.92361641 2113.86328697 C-2452.84091499 2112.87454582 -2452.75821358 2111.88580467 -2452.67300606 2110.86710167 C-2444.18695806 2010.10466891 -2425.76087864 1909.93918523 -2278.97439766 1536.53125572 C-2276.73285433 1532.61271083 -2274.52410693 1528.67828914 -2272.34158516 1524.72656822 C-2266.12092768 1513.4730366 -2259.72703324 1502.35002301 -2253.04861641 1491.36328697 C-2252.39280586 1490.28409996 -2251.73699532 1489.20491295 -2251.06131172 1488.0930233 C-2241.00308944 1471.64410187 -2230.59119513 1455.4285946 -2219.9824543 1439.33008385 C-2218.10517892 1436.47927035 -2216.23406111 1433.62447728 -2214.36306953 1430.76953697 C-2207.41415142 1420.1980535 -2200.24747003 1409.86961799 -2192.67361641 1399.73828697 C-2191.5501184 1398.18721496 -2190.43079781 1396.63309644 -2189.31814766 1395.07422447 C-2181.57248539 1384.23775145 -2173.56499352 1373.61763001 -2165.45096016 1363.05469322 C-2163.92630993 1361.0676216 -2162.40739379 1359.07644615 -2160.89236641 1357.08203697 C-2155.30575976 1349.75415032 -2149.53488965 1342.5919284 -2143.70486641 1335.45703697 C-2141.29511842 1332.50717306 -2138.9139106 1329.53648619 -2136.54861641 1326.55078697 C-2133.05541291 1322.16773585 -2129.44394717 1317.8925883 -2125.80984688 1313.62647057 C-2122.87984959 1310.18233213 -2120.01037548 1306.69763097 -2117.17361641 1303.17578697 C-2113.04905651 1298.10509147 -2108.67745042 1293.30636218 -2104.23611641 1288.51563072 C-2101.56875841 1285.62463753 -2098.97538038 1282.68027055 -2096.39627266 1279.71094322 C-2089.54904578 1271.87001449 -2082.4779156 1264.22783707 -2075.39769173 1256.5977993 C-2074.29129532 1255.40448847 -2073.18596545 1254.21018738 -2072.08198738 1253.0146389 C-2061.93525939 1242.03280206 -2051.47630014 1231.3851062 -2040.89163399 1220.82593346 C-2038.2116636 1218.15138362 -2035.53716157 1215.47144721 -2032.86306953 1212.79102135 C-2031.13487489 1211.06348665 -2029.40637052 1209.33626171 -2027.67752266 1207.60938072 C-2026.89091759 1206.82075142 -2026.10431252 1206.03212212 -2025.29387093 1205.21959496 C-2021.09853796 1201.04185201 -2016.8231646 1197.02422827 -2012.32679939 1193.17128563 C-2010.34246013 1191.45123677 -2008.49722029 1189.62701956 -2006.67361641 1187.73828697 C-2003.54853139 1184.57080739 -2000.31119752 1181.6194345 -1996.93924141 1178.71875572 C-1994.14044848 1176.27222466 -1991.40689935 1173.75732814 -1988.67361641 1171.23828697 C-1984.06589522 1167.00043534 -1979.41917729 1162.82129136 -1974.67361641 1158.73828697 C-1974.18167793 1158.31466881 -1973.68973946 1157.89105064 -1973.18289375 1157.45459557 C-1969.61925483 1154.3875724 -1966.04841297 1151.329093 -1962.47293282 1148.27588463 C-1961.31279381 1147.28449311 -1960.15354546 1146.29205793 -1958.99539375 1145.29834557 C-1952.39228328 1139.63314305 -1945.69517144 1134.12989738 -1938.82718086 1128.7883358 C-1935.10552224 1125.88718411 -1931.4650718 1122.91089406 -1927.86111641 1119.86328697 C-1920.98572309 1114.08795658 -1913.83599859 1108.68722028 -1906.68094063 1103.26514244 C-1904.90199783 1101.91200351 -1903.13086073 1100.54986182 -1901.36502266 1099.17969322 C-1895.16915693 1094.37296426 -1888.91409311 1089.65342601 -1882.61111641 1084.98828697 C-1881.92291817 1084.47660973 -1881.23471992 1083.96493248 -1880.52566719 1083.43774986 C-1864.51852882 1071.63936963 -1848.02905792 1060.48535526 -1831.54861641 1049.36328697 C-1830.61572792 1048.73342888 -1829.68283943 1048.10357079 -1828.72168159 1047.45462608 C-1814.80420479 1038.07035428 -1800.79495577 1028.94243025 -1786.3743 1020.34815025 C-1783.74412308 1018.78031563 -1781.12365549 1017.19743489 -1778.50564766 1015.60938072 C-1758.17545636 1003.30201724 -1737.5477911 991.49102288 -1716.95584297 979.62940025 C-1711.52701699 976.50148549 -1706.1004236 973.36970249 -1700.67361641 970.23828697 C-1698.50696058 968.98826818 -1696.34029391 967.73826819 -1694.17361641 966.48828697 C-1692.56486641 965.56016197 -1692.56486641 965.56016197 -1690.92361641 964.61328697 C-1499.17361641 853.98828697 -1499.17361641 853.98828697 -1495.92312813 852.11304283 C-1493.7580457 850.86393179 -1491.59300659 849.61474568 -1489.42801094 848.36548424 C-1483.98745935 845.22626388 -1478.54614425 842.08838134 -1473.10330391 838.95313072 C-1462.65155441 832.93081369 -1452.21062093 826.8915936 -1441.79861641 820.80078697 C-1432.52861864 815.3790752 -1423.21529889 810.03623782 -1413.88516426 804.7190609 C-1404.76078801 799.51783568 -1395.67228867 794.2580082 -1386.60672188 788.95483971 C-1376.08277016 782.80061956 -1365.51981503 776.71458701 -1354.95584297 770.62940025 C-1349.52701699 767.50148549 -1344.1004236 764.36970249 -1338.67361641 761.23828697 C-1336.50696058 759.98826818 -1334.34029391 758.73826819 -1332.17361641 757.48828697 C-1330.56486641 756.56016197 -1330.56486641 756.56016197 -1328.92361641 755.61328697 C-1137.17361639 644.98828696 -1137.17361639 644.98828696 -1133.92312813 643.11304283 C-1131.7580457 641.86393179 -1129.59300659 640.61474568 -1127.42801094 639.36548424 C-1121.98745935 636.22626388 -1116.54614425 633.08838134 -1111.10330391 629.95313072 C-1100.65155441 623.93081369 -1090.21062093 617.8915936 -1079.79861641 611.80078697 C-1070.52861864 606.3790752 -1061.21529889 601.03623782 -1051.88516426 595.7190609 C-1042.76078801 590.51783568 -1033.67228867 585.2580082 -1024.60672188 579.95483971 C-1014.08277016 573.80061956 -1003.51981503 567.71458701 -992.95584297 561.62940025 C-987.52701699 558.50148549 -982.1004236 555.36970249 -976.67361641 552.23828697 C-974.50696058 550.98826818 -972.34029391 549.73826819 -970.17361641 548.48828697 C-968.56486641 547.56016197 -968.56486641 547.56016197 -966.92361641 546.61328697 C-775.1736164 435.98828697 -775.1736164 435.98828697 -771.92312813 434.11304283 C-769.7580457 432.86393179 -767.59300659 431.61474568 -765.42801094 430.36548424 C-759.98745935 427.22626388 -754.54614425 424.08838134 -749.10330391 420.95313072 C-738.65155441 414.93081369 -728.21062093 408.8915936 -717.79861641 402.80078697 C-708.52861864 397.3790752 -699.21529889 392.03623782 -689.88516426 386.7190609 C-680.76078801 381.51783568 -671.67228867 376.2580082 -662.60672188 370.95483971 C-652.08277016 364.80061956 -641.51981503 358.71458701 -630.95584297 352.62940025 C-625.52701699 349.50148549 -620.1004236 346.36970249 -614.67361641 343.23828697 C-612.50696058 341.98826818 -610.34029391 340.73826819 -608.17361641 339.48828697 C-607.10111641 338.86953697 -606.02861641 338.25078697 -604.92361641 337.61328697 C-413.17361642 226.98828698 -413.17361642 226.98828698 -409.92312813 225.11304283 C-407.7580457 223.86393179 -405.59300659 222.61474568 -403.42801094 221.36548424 C-397.98745935 218.22626388 -392.54614425 215.08838134 -387.10330391 211.95313072 C-376.65155441 205.93081369 -366.21062093 199.8915936 -355.79861641 193.80078697 C-346.52861864 188.3790752 -337.21529889 183.03623782 -327.88516426 177.7190609 C-318.76078801 172.51783568 -309.67228867 167.2580082 -300.60672188 161.95483971 C-290.08277016 155.80061956 -279.51981503 149.71458701 -268.95584297 143.62940025 C-263.52701699 140.50148549 -258.1004236 137.36970249 -252.67361641 134.23828697 C-250.50696058 132.98826818 -248.34029391 131.73826819 -246.17361641 130.48828697 C-245.10111641 129.86953697 -244.02861641 129.25078697 -242.92361641 128.61328697 C-77.17361639 32.98828696 -77.17361639 32.98828696 -73.91971016 31.11108971 C-71.76599921 29.86852678 -69.61235274 28.62585208 -67.45877266 27.38306236 C-62.43677379 24.48514074 -57.41418834 21.58825348 -52.38919258 18.69553185 C-50.62316119 17.67881499 -48.8573421 16.66173039 -47.09158516 15.64453697 C-44.88627486 14.37427824 -42.68057425 13.10469679 -40.47439766 11.83594322 C-39.46763985 11.2558651 -38.46088203 10.67578697 -37.42361641 10.07813072 C-36.55221016 9.57660484 -35.68080391 9.07507896 -34.78299141 8.55835533 C-31.80595208 6.93556304 -31.80595208 6.93556304 -29.94442958 5.27400132 C-21.10647527 -1.43995098 -10.54562654 -0.08271307 0 0 Z " fill="#000000" transform="translate(5074.673616409302,2476.261713027954)"/>
<path d="M0 0 C2.79085758 1.29207658 3.47539273 2.93463281 4.91894531 5.62915039 C5.46542725 6.63002686 6.01190918 7.63090332 6.57495117 8.66210938 C7.15510986 9.75338135 7.73526855 10.84465332 8.33300781 11.96899414 C9.59016746 14.2747486 10.84933239 16.57941069 12.11035156 18.88305664 C12.43078934 19.47185104 12.75122711 20.06064545 13.08137512 20.6672821 C16.23927195 26.46037808 19.55100953 32.15725301 22.89550781 37.84399414 C24.06250882 39.83468359 25.22917227 41.82557097 26.39550781 43.81665039 C26.97945312 44.81325684 27.56339844 45.80986328 28.16503906 46.83666992 C31.2623782 52.13976664 34.32914639 57.46044349 37.39550781 62.78149414 C38.01804443 63.86164795 38.64058105 64.94180176 39.28198242 66.0546875 C40.54377608 68.24445748 41.80541315 70.43431769 43.06689453 72.62426758 C46.1948093 78.05309356 49.32659229 83.47968695 52.45800781 88.90649414 C53.7080266 91.07314997 54.9580266 93.23981664 56.20800781 95.40649414 C56.82675781 96.47899414 57.44550781 97.55149414 58.08300781 98.65649414 C63.70800781 108.40649414 63.70800781 108.40649414 65.58325195 111.65698242 C66.83236299 113.82206485 68.08154911 115.98710396 69.33081055 118.15209961 C72.47003091 123.5926512 75.60791344 129.0339663 78.74316406 134.47680664 C84.7654811 144.92855614 90.80470118 155.36948962 96.89550781 165.78149414 C102.31721959 175.05149191 107.66005697 184.36481166 112.97723389 193.69494629 C118.1784591 202.81932254 123.43828659 211.90782188 128.74145508 220.97338867 C134.89567523 231.49734039 140.98170777 242.06029552 147.06689453 252.62426758 C150.1948093 258.05309356 153.32659229 263.47968695 156.45800781 268.90649414 C157.7080266 271.07314997 158.9580266 273.23981664 160.20800781 275.40649414 C161.13613281 277.01524414 161.13613281 277.01524414 162.08300781 278.65649414 C272.70800782 470.40649415 272.70800782 470.40649415 274.58325195 473.65698242 C275.83236299 475.82206485 277.08154911 477.98710396 278.33081055 480.15209961 C281.47003091 485.5926512 284.60791344 491.0339663 287.74316406 496.47680664 C293.7654811 506.92855614 299.80470118 517.36948962 305.89550781 527.78149414 C311.31721959 537.05149191 316.66005697 546.36481166 321.97723389 555.69494629 C327.1784591 564.81932254 332.43828659 573.90782188 337.74145508 582.97338867 C343.89567523 593.49734039 349.98170777 604.06029552 356.06689453 614.62426758 C359.1948093 620.05309356 362.32659229 625.47968695 365.45800781 630.90649414 C366.7080266 633.07314997 367.9580266 635.23981664 369.20800781 637.40649414 C370.13613281 639.01524414 370.13613281 639.01524414 371.08300781 640.65649414 C481.70800781 832.40649414 481.70800781 832.40649414 483.58325195 835.65698242 C484.83236299 837.82206485 486.08154911 839.98710396 487.33081055 842.15209961 C490.47003091 847.5926512 493.60791344 853.0339663 496.74316406 858.47680664 C502.7654811 868.92855614 508.80470118 879.36948962 514.89550781 889.78149414 C520.31721959 899.05149191 525.66005697 908.36481166 530.97723389 917.69494629 C536.1784591 926.81932254 541.43828659 935.90782188 546.74145508 944.97338867 C552.89567523 955.49734039 558.98170777 966.06029552 565.06689453 976.62426758 C568.1948093 982.05309356 571.32659229 987.47968695 574.45800781 992.90649414 C575.7080266 995.07314997 576.9580266 997.23981664 578.20800781 999.40649414 C578.82675781 1000.47899414 579.44550781 1001.55149414 580.08300781 1002.65649414 C690.7080078 1194.40649413 690.7080078 1194.40649413 692.58325195 1197.65698242 C693.83236299 1199.82206485 695.08154911 1201.98710396 696.33081055 1204.15209961 C699.47003091 1209.5926512 702.60791344 1215.0339663 705.74316406 1220.47680664 C711.7654811 1230.92855614 717.80470118 1241.36948962 723.89550781 1251.78149414 C729.31721959 1261.05149191 734.66005697 1270.36481166 739.97723389 1279.69494629 C745.1784591 1288.81932254 750.43828659 1297.90782188 755.74145508 1306.97338867 C761.89567523 1317.49734039 767.98170777 1328.06029552 774.06689453 1338.62426758 C777.1948093 1344.05309356 780.32659229 1349.47968695 783.45800781 1354.90649414 C784.7080266 1357.07314997 785.9580266 1359.23981664 787.20800781 1361.40649414 C787.82675781 1362.47899414 788.44550781 1363.55149414 789.08300781 1364.65649414 C899.70800782 1556.40649416 899.70800782 1556.40649416 901.58325195 1559.65698242 C902.83236299 1561.82206485 904.08154911 1563.98710396 905.33081055 1566.15209961 C908.47003091 1571.5926512 911.60791344 1577.0339663 914.74316406 1582.47680664 C920.7654811 1592.92855614 926.80470118 1603.36948962 932.89550781 1613.78149414 C938.31721959 1623.05149191 943.66005697 1632.36481166 948.97723389 1641.69494629 C954.1784591 1650.81932254 959.43828659 1659.90782188 964.74145508 1668.97338867 C970.89567523 1679.49734039 976.98170777 1690.06029552 983.06689453 1700.62426758 C986.1948093 1706.05309356 989.32659229 1711.47968695 992.45800781 1716.90649414 C993.7080266 1719.07314997 994.9580266 1721.23981664 996.20800781 1723.40649414 C996.82675781 1724.47899414 997.44550781 1725.55149414 998.08300781 1726.65649414 C1108.70800781 1918.40649414 1108.70800781 1918.40649414 1110.58520508 1921.66040039 C1111.82776801 1923.81411134 1113.0704427 1925.96775781 1114.31323242 1928.12133789 C1117.21115404 1933.14333676 1120.1080413 1938.16592221 1123.00076294 1943.19091797 C1124.0174798 1944.95694936 1125.03456439 1946.72276845 1126.05175781 1948.48852539 C1127.32201654 1950.69383569 1128.59159799 1952.8995363 1129.86035156 1955.10571289 C1133.12439075 1960.77063423 1136.44229673 1966.38972948 1139.8894043 1971.94555664 C1140.95800781 1973.90649414 1140.95800781 1973.90649414 1140.95800781 1975.90649414 C891.47800781 1975.90649414 641.99800781 1975.90649414 384.95800781 1975.90649414 C377.03800781 1962.04649414 377.03800781 1962.04649414 368.95800781 1947.90649414 C364.5811674 1940.31032484 360.20309504 1932.71501395 355.81689453 1925.12426758 C352.69476176 1919.71978769 349.57659577 1914.31302002 346.45800781 1908.90649414 C345.2080266 1906.73981664 343.9580266 1904.57314997 342.70800781 1902.40649414 C305.20800781 1837.40649414 305.20800781 1837.40649414 303.33276367 1834.15600586 C302.08365263 1831.99092343 300.83446652 1829.82588432 299.58520508 1827.66088867 C296.44598472 1822.22033708 293.30810218 1816.77902198 290.17285156 1811.33618164 C284.15053453 1800.88443215 278.11131444 1790.44349866 272.02050781 1780.03149414 C266.59879604 1770.76149637 261.25595866 1761.44817662 255.93878174 1752.11804199 C250.73755652 1742.99366574 245.47772904 1733.9051664 240.17456055 1724.83959961 C234.0203404 1714.31564789 227.93430785 1703.75269277 221.84912109 1693.1887207 C218.72120633 1687.75989472 215.58942333 1682.33330133 212.45800781 1676.90649414 C211.20798902 1674.73983831 209.95798903 1672.57317164 208.70800781 1670.40649414 C207.77988281 1668.79774414 207.77988281 1668.79774414 206.83300781 1667.15649414 C96.20800782 1475.40649415 96.20800782 1475.40649415 94.33276367 1472.15600586 C93.08365263 1469.99092343 91.83446652 1467.82588432 90.58520508 1465.66088867 C87.44598472 1460.22033708 84.30810218 1454.77902198 81.17285156 1449.33618164 C75.15053453 1438.88443215 69.11131444 1428.44349866 63.02050781 1418.03149414 C57.59879604 1408.76149637 52.25595866 1399.44817662 46.93878174 1390.11804199 C41.73755652 1380.99366574 36.47772904 1371.9051664 31.17456055 1362.83959961 C25.0203404 1352.31564789 18.93430785 1341.75269277 12.84912109 1331.1887207 C9.72120633 1325.75989472 6.58942333 1320.33330133 3.45800781 1314.90649414 C2.20798902 1312.73983831 0.95798903 1310.57317164 -0.29199219 1308.40649414 C-1.22011719 1306.79774414 -1.22011719 1306.79774414 -2.16699219 1305.15649414 C-112.79199218 1113.40649415 -112.79199218 1113.40649415 -114.66723633 1110.15600586 C-115.91634737 1107.99092343 -117.16553348 1105.82588432 -118.41479492 1103.66088867 C-121.55401528 1098.22033708 -124.69189782 1092.77902198 -127.82714844 1087.33618164 C-133.84946547 1076.88443215 -139.88868556 1066.44349866 -145.97949219 1056.03149414 C-151.40120396 1046.76149637 -156.74404134 1037.44817662 -162.06121826 1028.11804199 C-167.26244348 1018.99366574 -172.52227096 1009.9051664 -177.82543945 1000.83959961 C-183.9796596 990.31564789 -190.06569215 979.75269277 -196.15087891 969.1887207 C-199.27879367 963.75989472 -202.41057667 958.33330133 -205.54199219 952.90649414 C-206.79201098 950.73983831 -208.04201097 948.57317164 -209.29199219 946.40649414 C-209.91074219 945.33399414 -210.52949219 944.26149414 -211.16699219 943.15649414 C-321.79199219 751.40649414 -321.79199219 751.40649414 -323.66723633 748.15600586 C-324.91634737 745.99092343 -326.16553348 743.82588432 -327.41479492 741.66088867 C-330.55401528 736.22033708 -333.69189782 730.77902198 -336.82714844 725.33618164 C-342.84946547 714.88443215 -348.88868556 704.44349866 -354.97949219 694.03149414 C-360.40120396 684.76149637 -365.74404134 675.44817662 -371.06121826 666.11804199 C-376.26244348 656.99366574 -381.52227096 647.9051664 -386.82543945 638.83959961 C-392.9796596 628.31564789 -399.06569215 617.75269277 -405.15087891 607.1887207 C-408.27879367 601.75989472 -411.41057667 596.33330133 -414.54199219 590.90649414 C-415.79201098 588.73983831 -417.04201097 586.57317164 -418.29199219 584.40649414 C-418.91074219 583.33399414 -419.52949219 582.26149414 -420.16699219 581.15649414 C-530.79199219 389.40649414 -530.79199219 389.40649414 -532.66845703 386.15380859 C-533.913405 383.99599611 -535.15852109 381.83828061 -536.40380859 379.68066406 C-539.60751869 374.12932822 -542.80792849 368.57612873 -546.00292969 363.01977539 C-546.65390625 361.88878418 -547.30488281 360.75779297 -547.97558594 359.5925293 C-549.25293796 357.37290527 -550.52901527 355.15254709 -551.80371094 352.93139648 C-554.48299654 348.27635289 -557.17809969 343.64113789 -560.01855469 339.08227539 C-560.66848389 338.03463013 -560.66848389 338.03463013 -561.33154297 336.96582031 C-562.44202626 335.19124203 -563.56932582 333.4272159 -564.69824219 331.66430664 C-566.04199219 328.90649414 -566.04199219 328.90649414 -565.93041992 326.93066406 C-564.65396735 324.02242877 -562.92670562 323.29806978 -560.17089844 321.76196289 C-559.13513672 321.17543945 -558.099375 320.58891602 -557.03222656 319.98461914 C-555.90107422 319.36071289 -554.76992187 318.73680664 -553.60449219 318.09399414 C-552.42338248 317.42999944 -551.24305498 316.76461161 -550.06347656 316.09790039 C-547.61026292 314.71274748 -545.15377818 313.33367516 -542.69482422 311.95874023 C-537.11179727 308.83048358 -531.57956273 305.61428219 -526.04199219 302.40649414 C-523.87556715 301.15607541 -521.70889955 299.90607684 -519.54199219 298.65649414 C-518.46949219 298.03774414 -517.39699219 297.41899414 -516.29199219 296.78149414 C-324.54199219 186.15649414 -324.54199219 186.15649414 -321.29150391 184.28125 C-319.12642148 183.03213896 -316.96138237 181.78295285 -314.79638672 180.53369141 C-309.35583513 177.39447105 -303.91452003 174.25658851 -298.47167969 171.12133789 C-288.01993019 165.09902085 -277.57899671 159.05980077 -267.16699219 152.96899414 C-257.89699441 147.54728236 -248.58367467 142.20444499 -239.25354004 136.88726807 C-230.12916379 131.68604285 -221.04066445 126.42621536 -211.97509766 121.12304688 C-201.45114594 114.96882673 -190.88819081 108.88279418 -180.32421875 102.79760742 C-174.89539276 99.66969266 -169.46879938 96.53790966 -164.04199219 93.40649414 C-161.87533636 92.15647535 -159.70866969 90.90647536 -157.54199219 89.65649414 C-156.46949219 89.03774414 -155.39699219 88.41899414 -154.29199219 87.78149414 C-66.54199217 37.15649413 -66.54199217 37.15649413 -63.2902832 35.28051758 C-61.12930231 34.03379158 -58.96833221 32.78704687 -56.80737305 31.5402832 C-51.30380368 28.36503531 -45.80003186 25.19013919 -40.29589844 22.01586914 C-38.63034912 21.05487305 -38.63034912 21.05487305 -36.93115234 20.07446289 C-34.73772982 18.80985645 -32.5434132 17.54679933 -30.34814453 16.28540039 C-25.31649438 13.39121806 -20.30212436 10.47533603 -15.32714844 7.48461914 C-14.45050537 6.96222656 -13.5738623 6.43983398 -12.6706543 5.90161133 C-11.04936939 4.9334252 -9.43384845 3.9554934 -7.82543945 2.96606445 C-7.11572998 2.54421875 -6.40602051 2.12237305 -5.67480469 1.68774414 C-5.06523926 1.31713867 -4.45567383 0.9465332 -3.82763672 0.56469727 C-2.04199219 -0.09350586 -2.04199219 -0.09350586 0 0 Z " fill="#000000" transform="translate(4300.0419921875,3880.093505859375)"/>
<path d="M0 0 C223.74 0 447.48 0 678 0 C681.48992155 12.21472542 684.97171235 24.41068915 688.23472595 36.68492126 C688.47579512 37.59078413 688.71686428 38.496647 688.96523857 39.42996025 C689.21389734 40.36444056 689.46255611 41.29892086 689.71875 42.26171875 C690.25463367 44.26990799 690.7906953 46.27804975 691.32691956 48.28614807 C692.46286524 52.54136691 693.5977399 56.79686923 694.73171997 61.0526123 C696.53460723 67.81847409 698.34013392 74.58362971 700.14624023 81.34863281 C700.45035167 82.48773542 700.7544631 83.62683804 701.06779003 84.80045891 C701.68348511 87.10662331 702.29918965 89.41278519 702.91490364 91.71894455 C703.84101008 95.18796258 704.76689408 98.65703992 705.69273376 102.12612915 C710.91419562 121.68910659 716.15483518 141.24689771 721.40528488 160.80211258 C722.51069793 164.91937436 723.61581273 169.03671619 724.72094727 173.15405273 C725.16827851 174.82063307 725.61561026 176.48721327 726.0629425 178.15379333 C726.28559595 178.9833145 726.5082494 179.81283566 726.73764992 180.66749382 C727.41497458 183.19089799 728.09233554 185.71429242 728.7696991 188.23768616 C734.49686988 209.57389842 740.21763082 230.91182932 745.9375 252.25 C746.2110947 253.27062656 746.48468941 254.29125313 746.76657486 255.34280777 C755.01033917 286.09590031 763.24189084 316.85224098 771.46469879 347.61094284 C778.56796794 374.18153337 785.68317913 400.74888756 792.8125 427.3125 C793.14767639 428.56135609 793.14767639 428.56135609 793.48962402 429.83544159 C794.16950921 432.36864881 794.84940169 434.90185406 795.52929688 437.43505859 C796.44792189 440.85774599 797.36654095 444.28043499 798.28515625 447.703125 C798.62952665 448.9862023 798.62952665 448.9862023 798.98085403 450.29520035 C807.38814926 481.62025332 815.78170715 512.94899131 824.17776489 544.27705765 C828.04968559 558.72426219 831.92247835 573.17123267 835.79600143 587.61800766 C846.69836211 628.2799877 857.59311472 668.94397153 868.46550751 709.61397552 C875.56849973 736.18355724 882.6835452 762.74987251 889.8125 789.3125 C890.03550907 790.14345058 890.25851814 790.97440117 890.48828506 791.83053207 C891.62283815 796.05796906 892.75740909 800.28540125 893.89198303 804.51283264 C894.23314998 805.78402797 894.23314998 805.78402797 894.58120918 807.08090401 C895.04347987 808.80333097 895.5057538 810.52575706 895.96803093 812.2481823 C901.68595437 833.55317992 907.39920702 854.8594294 913.11080933 876.16612244 C913.93541599 879.24222584 914.76006507 882.31831786 915.5847168 885.39440918 C921.23989805 906.48979026 926.8916248 927.58608663 932.5306282 948.68579865 C933.29979763 951.56373522 934.0691185 954.44163126 934.83847046 957.31951904 C937.05108155 965.59679504 939.26281852 973.8742989 941.46977806 982.1530838 C945.71578115 998.0789157 949.97532783 1013.99906499 954.390625 1029.87890625 C955.02960817 1032.18805108 955.66852733 1034.49721362 956.30737305 1036.80639648 C957.43065957 1040.86407961 958.57197983 1044.91600416 959.72583008 1048.96508789 C960.20458181 1050.68748416 960.68273812 1052.4100461 961.16015625 1054.1328125 C961.38169373 1054.88861099 961.6032312 1055.64440948 961.83148193 1056.42311096 C963.19338072 1061.42046468 963.19338072 1061.42046468 962.37759399 1063.86526489 C960.46688519 1066.8261207 958.05899971 1069.19395746 955.55981445 1071.65136719 C954.72768181 1072.48152847 954.72768181 1072.48152847 953.8787384 1073.32846069 C952.04480638 1075.15590625 950.20400132 1076.97626923 948.36328125 1078.796875 C947.0820253 1080.07185556 945.80128646 1081.34735597 944.52104187 1082.62335205 C941.14627656 1085.98481262 937.76600031 1089.34067164 934.38409424 1092.69494629 C928.98814806 1098.04780884 923.59877288 1103.40726397 918.21282005 1108.77017975 C916.33922463 1110.63363959 914.46220271 1112.49359449 912.58479309 1114.35321045 C907.34966586 1119.55171125 902.15820127 1124.72444775 897.40544128 1130.37677002 C895.84934854 1132.17399657 894.19712336 1133.83606109 892.5 1135.5 C889.53284199 1138.42130788 886.79941029 1141.47991673 884.08203125 1144.6328125 C881.439536 1147.63722549 878.72159827 1150.56734072 876 1153.5 C871.58488097 1158.26622193 867.23077602 1163.06847432 863 1168 C862.37472412 1168.72775635 862.37472412 1168.72775635 861.73681641 1169.47021484 C859.21056616 1172.41092116 856.68782554 1175.35459488 854.16796875 1178.30078125 C852.13428605 1180.67786953 850.0954978 1183.05036621 848.05078125 1185.41796875 C840.22147641 1194.49367797 832.58626959 1203.72061201 825 1213 C824.43071777 1213.69448242 823.86143555 1214.38896484 823.27490234 1215.10449219 C816.85347555 1222.93999718 810.51461155 1230.82418545 804.375 1238.8828125 C802.03508122 1241.95395589 799.674825 1245.00857328 797.3125 1248.0625 C776.31254947 1275.33297684 756.40531819 1303.36148387 737.15795898 1331.89160156 C735.30666016 1334.63364966 733.44930584 1337.37153119 731.59179688 1340.109375 C724.48091301 1350.62304055 717.65562333 1361.25830719 711.12179565 1372.1395874 C709.61776558 1374.63390665 708.08179154 1377.10759264 706.5390625 1379.578125 C690.92941796 1404.59927598 676.16306192 1430.13351111 662 1456 C661.50338867 1456.90685547 661.00677734 1457.81371094 660.49511719 1458.74804688 C645.92295334 1485.43248636 631.78416049 1512.40913551 619 1540 C618.40989678 1541.26891093 617.81972351 1542.53778928 617.22949219 1543.80664062 C579.74014693 1624.50014828 548.65405745 1707.96367111 504 1874 C503.34 1874 502.68 1874 502 1874 C491.29124325 1834.52225679 480.65138998 1795.02678417 470.125 1755.5 C468.08351187 1747.83458785 466.041955 1740.16919404 464 1732.50390625 C463.74785358 1731.55735106 463.49570717 1730.61079586 463.23591995 1729.63555717 C457.88844884 1709.56340366 452.51137808 1689.49924291 447.125 1669.4375 C446.67660248 1667.76729403 446.22820771 1666.09708732 445.77981567 1664.42687988 C443.95586516 1657.6330262 442.13178354 1650.83920773 440.30751038 1644.04544067 C434.83000698 1623.64594382 429.36017964 1603.24438914 423.8914566 1582.84253693 C423.33899259 1580.78149374 422.78651762 1578.7204535 422.23403168 1576.6594162 C413.99010295 1545.90557219 405.75830762 1515.14850139 397.53530121 1484.38905716 C390.43203206 1457.81846663 383.31682087 1431.25111244 376.1875 1404.6875 C375.96404907 1403.85492928 375.74059814 1403.02235855 375.51037598 1402.16455841 C374.83049079 1399.63135119 374.15059831 1397.09814594 373.47070312 1394.56494141 C372.55207811 1391.14225401 371.63345905 1387.71956501 370.71484375 1384.296875 C370.48526348 1383.44149014 370.25568321 1382.58610527 370.01914597 1381.70479965 C361.61185074 1350.37974668 353.21829285 1319.05100869 344.82223511 1287.72294235 C340.95031441 1273.27573781 337.07752165 1258.82876733 333.20399857 1244.38199234 C322.30163789 1203.7200123 311.40688528 1163.05602847 300.53449249 1122.38602448 C293.43150027 1095.81644276 286.3164548 1069.25012749 279.1875 1042.6875 C278.96449093 1041.85654942 278.74148186 1041.02559883 278.51171494 1040.16946793 C277.37716185 1035.94203094 276.24259091 1031.71459875 275.10801697 1027.48716736 C274.88057234 1026.63970381 274.65312771 1025.79224026 274.41879082 1024.91909599 C273.95652013 1023.19666903 273.4942462 1021.47424294 273.03196907 1019.7518177 C267.03817947 997.41894204 261.0495591 975.08468084 255.0625 952.75 C254.65250826 951.22056133 254.65250826 951.22056133 254.23423386 949.66022491 C245.99018456 918.90612562 237.75837936 888.14876973 229.53530121 857.38905716 C222.43203206 830.81846663 215.31682087 804.25111244 208.1875 777.6875 C207.96404907 776.85492928 207.74059814 776.02235855 207.51037598 775.16455841 C206.83049079 772.63135119 206.15059831 770.09814594 205.47070312 767.56494141 C204.55207811 764.14225401 203.63345905 760.71956501 202.71484375 757.296875 C202.48526348 756.44149014 202.25568321 755.58610527 202.01914597 754.70479965 C193.61185074 723.37974668 185.21829285 692.05100869 176.82223511 660.72294235 C172.95031441 646.27573781 169.07752165 631.82876733 165.20399857 617.38199234 C154.30163789 576.7200123 143.40688528 536.05602847 132.53449249 495.38602448 C125.4315003 468.81644288 118.31654967 442.25010196 111.1875 415.6875 C110.85232361 414.43864391 110.85232361 414.43864391 110.51037598 413.16455841 C109.83049079 410.63135119 109.15059831 408.09814594 108.47070312 405.56494141 C107.55207811 402.14225401 106.63345905 398.71956501 105.71484375 395.296875 C105.48526348 394.44149014 105.25568321 393.58610527 105.01914597 392.70479965 C96.61185074 361.37974668 88.21829285 330.05100869 79.82223511 298.72294235 C75.95031441 284.27573781 72.07752165 269.82876733 68.20399857 255.38199234 C57.07043724 213.85771498 45.94385317 172.33160112 34.8430481 130.79855347 C29.4996933 110.80686568 24.14848651 90.81732204 18.78125 70.83203125 C18.26722747 68.91775133 17.75320969 67.00347013 17.23919678 65.08918762 C15.02962247 56.86080455 12.81950426 48.63256934 10.60679626 40.40502834 C9.71232405 37.07834662 8.81867739 33.75144349 7.92521667 30.42448997 C7.51443557 28.89565111 7.10328761 27.36691075 6.69172668 25.83828163 C6.12522791 23.73407916 5.560038 21.62952892 4.99511719 19.52490234 C4.6803241 18.35422211 4.36553101 17.18354187 4.04119873 15.97738647 C2.64998798 10.66295163 1.33237261 5.32949044 0 0 Z " fill="#000000" transform="translate(1971,2477)"/>
</svg>
